# xmcd
#
# Track frame offsets: 
#        150
#        12327
#        23257
#        33870
#        47237
#        57122
#        70692
#        79490
#        92222
#        100865
#        115120
#        127945
#        141442
#        151060
#        163142
#        173620
#        186747
#        197032
#        208377
#        218867
#
# Disc length: 3073 seconds
#
# Revision: 0
# Processed by: cddbd v1.5.2PL0 Copyright (c) Steve Scherf et al.
# Submitted via: ExactAudioCopyFreeDBPlugin 1.0
#
DISCID=170bff14
DTITLE=Pat Boone - Pat Boone - Greatest Hits and Performances
DYEAR=1995
DGENRE=Easy Listening
TTITLE0=April Love
TTITLE1=I'll Remember Tonight
TTITLE2=To the Center of the Earth
TTITLE3=Friendly Persuasion (Thee I Love)
TTITLE4=Bernardine
TTITLE5=Anastasia
TTITLE6=All Hands on the Deck
TTITLE7=Unchained Melody
TTITLE8=It's a Grand Night For Singing
TTITLE9=The Exodus Song
TTITLE10=Ave Maria
TTITLE11=(There'll Be) Peace In The Valley (For Me)
TTITLE12=A Wonderful Time of Up There
TTITLE13=Softly and Tenderly
TTITLE14=Beyond The Sunset
TTITLE15=I Believe
TTITLE16=There's A Gold Mine in he Sky
TTITLE17=He
TTITLE18=Will the Circle Be Unbroken
TTITLE19=You'll Never Walk Alone
EXTD=
EXTT0=
EXTT1=
EXTT2=
EXTT3=
EXTT4=
EXTT5=
EXTT6=
EXTT7=
EXTT8=
EXTT9=
EXTT10=
EXTT11=
EXTT12=
EXTT13=
EXTT14=
EXTT15=
EXTT16=
EXTT17=
EXTT18=
EXTT19=
PLAYORDER=
